M48
;Layer_Color=9474304
;FILE_FORMAT=4:4
METRIC,LZ
;TYPE=PLATED
T01F00S00C0.3000
T02F00S00C0.8000
T03F00S00C1.0000
T04F00S00C1.0200
T05F00S00C1.0900
T06F00S00C1.1000
T07F00S00C1.2000
T08F00S00C1.2000
T09F00S00C1.2500
T10F00S00C1.3000
T11F00S00C1.3000
T12F00S00C1.4000
T13F00S00C1.5000
T14F00S00C3.2000
;TYPE=NON_PLATED
T15F00S00C1.2000
%
T01
X00386796Y00118596
X00402331Y00110617
X00671515Y00095989
X0098375Y0014425
X01433878Y00743623
X01438474Y00739027
X014535Y0075375
X00503148Y00589675
X00382Y00909178
X0068425Y0090025
X01458831Y00849912
X01613571Y00950717
X01596141Y01032876
X01645Y013305
X0165425Y01335
X016605Y0131775
X017195Y0135375
X01504912Y01329887
X01558171Y01201712
X01325597Y01297195
X01309Y01509994
X0130175Y01519994
X01300583Y01529994
X01465488Y015825
X01186686Y01560053
X01163702Y01578322
X01154735Y01577328
X010455Y01530744
Y01520744
X01051958Y01510744
X00928686Y01560803
X00905702Y01579072
X00896736Y01578078
X00797Y0153
X00800625Y0152
X00805Y0151
X00849458Y01300744
X00856016Y01300895
X00851958Y01290744
X01107458Y01299994
X01113958
X01108708Y01310512
X00614Y013
X006075
X006
X0059225Y013645
X00583138Y0155767
X0053075Y015865
X00654777Y01577334
X00663744Y01578328
X00686728Y01560059
X00238111Y01483588
X00242865Y01273569
X0045Y01595
X0048
X0053
X0055
X0058
X0053765Y01627275
X006075Y01715
X0061925
X0062Y018075
X0058Y0181
X0055
X0053
X0048
X0045
X0079Y0172
X00759562Y01588551
X00733838Y01587735
X008Y0172
X0080677Y01727337
X00849458Y01715744
X00861208
X00861958Y01808244
X01031958Y01720744
X01041958
X01048729Y01728081
X01107458Y01714994
X01119208
X01119958Y01807494
X01001521Y01589295
X00975796Y01588479
X01233796Y01587729
X0125952Y01588545
X013665Y016375
X01396951Y01637327
X01415746Y0170875
X0138725Y017565
X01383209Y01771291
X01382888Y0178864
X0136225Y017445
X01306729Y01727331
X01299958Y01719994
X01289958
X01503Y0173725
X0151175Y0174675
X01519198Y0175025
X01555Y0175
X01566Y0175225
X015655Y0172875
X015595Y0164325
X01545Y0164125
X01487502Y01620892
X0147623Y01617904
X01460136Y01591929
X01453145Y01590895
X01579655Y01851155
X01606Y0183975
X01620318Y01822139
X015885Y017175
X016945Y0162675
T02
X009296Y0085
X00955
X009804
Y00925
X00955
X009296
T03
X017073Y0012
X017327
T04
X0094084Y0010137
Y0013137
X0134025Y0004025
X0137025
X0146525
X0149525
X0159025
X0162025
X00365Y0088622
Y0091622
X00465
Y0088622
X00565
Y0091622
X00665
Y0088622
X01665Y01785
Y01815
T05
X0015875Y0087757
Y0090527
Y0093297
Y0096067
X0018715Y0097452
Y0094682
Y0091912
Y0089142
Y0086372
X001793Y0121387
Y0124157
Y0126927
Y0129697
Y0132467
X001509Y0131082
Y0128312
Y0125542
Y0122772
X0016Y016869
Y017146
Y017423
Y0177
X001884Y0178385
Y0175615
Y0172845
Y0170075
Y0167305
T06
X01475Y00375
Y004004
Y005623
Y005877
Y007123
Y007377
X01465Y01255
X014396
X0139
X013646
T07
X0099966Y0015169
X0102466
X0108094
X0110594
X0154798Y0033314
Y0035814
X0170775Y0005315
X0173275
X0154798Y0041843
Y0044343
Y0051876
Y0054376
Y0060385
Y0062885
Y0070819
Y0073319
T08
X0032111Y0006031
X0033Y0009
Y0012
Y0015
X0036
Y0012
Y0009
X0032111Y0017969
X0047111
X0048Y0015
Y0012
Y0009
X0051
Y0012
Y0015
X0062
Y0012
Y0009
X0065
Y0012
Y0015
X0061111Y0017969
Y0006031
X0047111
X007773Y0008103
Y0010603
X008027
X008023Y0008103
X01025Y005306
X01055Y0054
X01085
Y0057
X01055
X01115Y005306
X00565Y004666
X0054
X00515
X0049
X004075
X004523Y0075225
X004773
X004777Y0077725
X004523
X005523
Y0075225
X005773
X005777Y0077725
X006523
Y0075225
X006773
X006777Y0077725
X003777
X003773Y0075225
X003523
Y0077725
X003575Y004666
X003325
X003825
X0106611Y0083531
X01075Y00865
Y00895
Y00925
X01105
Y00895
Y00865
X0106611Y0095469
X014634Y009625
Y009375
Y009875
Y010125
X0157Y01005
Y00975
Y00945
X0156111Y0091531
Y0103469
X016Y01005
Y00975
Y00945
X0158922Y0126413
Y0129413
X0161922
Y0126413
X0164891Y0125524
X016525Y01366195
X016275
X016025
Y01391195
X016275
X016525
X016775
Y01366195
X015775
X015525
Y01391195
X015275
X015025
Y01366195
X015275
X015775Y01391195
X0155922Y0129413
Y0126413
X0152953Y0125524
X0144Y0133
X01415
X0139
X01365
X00149485Y014573
X00124485
Y014827
X00149485Y014823
X0031Y0162
Y0165
X0034
X0037
Y0162
X0034
X0028031Y0165889
X0029031Y0183111
X0032Y0184
X0035
X0038
Y0187
X0035
X0032
X0012897Y019273
X0010397
Y019527
X0012897Y019523
X0040969Y0183111
X0039969Y0165889
X0139Y01665
Y0169
X01415
X0144
Y01665
X01465
Y0169
X0149
Y01665
X01515
Y0169
X0154
X01565
Y01665
X0154
X01415
Y01815
X0144
X01465
Y0184
X0144
X01415
X0139
Y01815
X0149
Y0184
X01515
Y01815
X0154
Y0184
X01565
Y01815
T09
X0065Y0119
X00675
X007
X00725
X0075
X00775
X0115
X01175
X012
X01225
X0125
X01275
Y01215
X0125
X01225
X012
X012Y013716
X01225
X0125
X01275
Y013966
X0125
X01225
X012
X01175
Y013716
X0115
Y013966
X01016958Y01397344
X00991958
X00966958
X00941958
X00916958
X00891958
Y01372344
X00916958
X00941958
X00966958
X00991958
X01016958
X01017Y0121575
X00992
X00967
X00942
X00917
X00892
Y0119075
X00917
X00942
X00967
X00992
X01017
X0115Y01215
X01175
X00775
X0075
X00725
X007
X00675
X0065
X0065Y013716
X00675
X007
X00725
X0075
X00775
Y013966
X0075
X00725
X007
X00675
X0065
X00575
Y013716
X0055
X00525
X005
X00475
X0045
Y013966
X00475
X005
X00525
X0055
X0055Y01615
Y0164
X00575
Y01615
X00525
Y0164
X005
X00475
X0045
Y01615
X00475
X005
X0065
X00675
X007
X00725
X0075
X00775
Y0164
X0075
X00725
X007
X00675
X0065
Y0183
Y01855
X00675
X007
X00725
X0075
X00775
Y0183
X0075
X00725
X007
X00675
X00575
Y01855
X0055
X00525
X005
X00475
X0045
Y0183
X00475
X005
X00525
X0055
X00892Y0183075
X00917
X00942
X00967
X00992
X01017
Y0185575
X00992
X00967
X00942
X00917
X00892
Y0164075
X00917
X00942
X00967
X00992
X01017
Y0161575
X00992
X00967
X00942
X00917
X00892
X0115Y01615
X01175
Y0164
X0115
Y0183
Y01855
X01175
Y0183
X012
Y01855
X01225
X0125
X01275
Y0183
X0125
X01225
Y0164
Y01615
X012
Y0164
X0125
Y01615
X01275
Y0164
T10
X0101216Y0013879
X0109344
X0156088Y0034564
X0172025Y0004025
X0156088Y0043093
Y0053126
Y0061635
Y0072069
T11
X0159Y01405
X014775Y01703805
Y01853805
T12
X0079Y0012
X005275Y0048
X00565Y0079122
X00665
X00465
X00365
X0037Y0048
X0145Y00975
X014025Y013434
X00110515Y0147
X0009Y0194
T13
X0095984Y0007187
X0095984Y0016287
X0131075Y0002125
X0140175Y0002125
X0143575Y0002125
X0152675Y0002125
X0156075Y0002125
X0165175Y0002125
X00384Y0085672
X00384Y0094772
X00484
X00484Y0085672
X00584
X00584Y0094772
X00684
X00684Y0085672
X01684Y017555
X01684Y018465
T14
X0017295Y0079412
Y0104412
X001651Y0114427
Y0139427
X001742Y0160345
Y0185345
T15
X012125Y012284
X012125Y0141
X00954458Y01410744
X009545Y0122915
X007125Y012284
X007125Y0141
X005125
X005125Y016534
X007125
Y018684
X005125
X009545Y0186915
Y0165415
X012125Y016534
Y018684
M30
