G04*
G04 #@! TF.GenerationSoftware,Altium Limited,Altium Designer,24.1.2 (44)*
G04*
G04 Layer_Color=16711935*
%FSLAX44Y44*%
%MOMM*%
G71*
G04*
G04 #@! TF.SameCoordinates,70DEF323-38D4-4C79-B4EE-BD2FB1141571*
G04*
G04*
G04 #@! TF.FilePolarity,Negative*
G04*
G01*
G75*
%ADD14C,1.7032*%
%ADD15C,0.2032*%
%ADD16C,1.8032*%
G04:AMPARAMS|DCode=17|XSize=1.8032mm|YSize=1.8032mm|CornerRadius=0.5016mm|HoleSize=0mm|Usage=FLASHONLY|Rotation=270.000|XOffset=0mm|YOffset=0mm|HoleType=Round|Shape=RoundedRectangle|*
%AMROUNDEDRECTD17*
21,1,1.8032,0.8000,0,0,270.0*
21,1,0.8000,1.8032,0,0,270.0*
1,1,1.0032,-0.4000,-0.4000*
1,1,1.0032,-0.4000,0.4000*
1,1,1.0032,0.4000,0.4000*
1,1,1.0032,0.4000,-0.4000*
%
%ADD17ROUNDEDRECTD17*%
%ADD18C,1.5032*%
%ADD19C,2.2032*%
%ADD20R,2.2032X2.2032*%
G04:AMPARAMS|DCode=21|XSize=1.8032mm|YSize=1.8032mm|CornerRadius=0.5016mm|HoleSize=0mm|Usage=FLASHONLY|Rotation=180.000|XOffset=0mm|YOffset=0mm|HoleType=Round|Shape=RoundedRectangle|*
%AMROUNDEDRECTD21*
21,1,1.8032,0.8000,0,0,180.0*
21,1,0.8000,1.8032,0,0,180.0*
1,1,1.0032,-0.4000,0.4000*
1,1,1.0032,0.4000,0.4000*
1,1,1.0032,0.4000,-0.4000*
1,1,1.0032,-0.4000,-0.4000*
%
%ADD21ROUNDEDRECTD21*%
%ADD22C,2.0782*%
%ADD23C,0.8782*%
%ADD24C,1.4032*%
G04:AMPARAMS|DCode=25|XSize=2.2032mm|YSize=2.2032mm|CornerRadius=0.6016mm|HoleSize=0mm|Usage=FLASHONLY|Rotation=180.000|XOffset=0mm|YOffset=0mm|HoleType=Round|Shape=RoundedRectangle|*
%AMROUNDEDRECTD25*
21,1,2.2032,1.0000,0,0,180.0*
21,1,1.0000,2.2032,0,0,180.0*
1,1,1.2032,-0.5000,0.5000*
1,1,1.2032,0.5000,0.5000*
1,1,1.2032,0.5000,-0.5000*
1,1,1.2032,-0.5000,-0.5000*
%
%ADD25ROUNDEDRECTD25*%
%ADD26C,2.0032*%
%ADD27R,2.0032X2.0032*%
%ADD28C,1.6032*%
G04:AMPARAMS|DCode=29|XSize=2.2032mm|YSize=2.2032mm|CornerRadius=0.6016mm|HoleSize=0mm|Usage=FLASHONLY|Rotation=270.000|XOffset=0mm|YOffset=0mm|HoleType=Round|Shape=RoundedRectangle|*
%AMROUNDEDRECTD29*
21,1,2.2032,1.0000,0,0,270.0*
21,1,1.0000,2.2032,0,0,270.0*
1,1,1.2032,-0.5000,-0.5000*
1,1,1.2032,-0.5000,0.5000*
1,1,1.2032,0.5000,0.5000*
1,1,1.2032,0.5000,-0.5000*
%
%ADD29ROUNDEDRECTD29*%
%ADD30R,2.0032X2.0032*%
%ADD31R,1.8032X1.8032*%
%ADD32R,1.8032X1.8032*%
%ADD33R,1.4032X1.4032*%
%ADD34C,1.8382*%
%ADD35C,4.4192*%
%ADD36C,0.6532*%
D14*
X1732700Y120000D02*
D03*
X1707300D02*
D03*
X384000Y856720D02*
D03*
X384000Y947720D02*
D03*
X1310750Y21250D02*
D03*
X1401750Y21250D02*
D03*
X1435750Y21250D02*
D03*
X1526750Y21250D02*
D03*
X1560750Y21250D02*
D03*
X1651750Y21250D02*
D03*
X1684000Y1846500D02*
D03*
X1684000Y1755500D02*
D03*
X684000Y856720D02*
D03*
X684000Y947720D02*
D03*
X584000Y856720D02*
D03*
X584000Y947720D02*
D03*
X959840Y71870D02*
D03*
X959840Y162870D02*
D03*
X484000Y856720D02*
D03*
X484000Y947720D02*
D03*
D15*
X1560880Y345640D02*
D03*
X1093440Y138790D02*
D03*
X1720250Y40250D02*
D03*
X1560880Y531260D02*
D03*
Y720690D02*
D03*
Y430930D02*
D03*
Y616350D02*
D03*
X1012160Y138790D02*
D03*
D16*
X1547980Y333140D02*
D03*
X1080940Y151690D02*
D03*
X1707750Y53150D02*
D03*
X1547980Y518760D02*
D03*
Y708190D02*
D03*
Y418430D02*
D03*
Y603850D02*
D03*
X999660Y151690D02*
D03*
D17*
X1547980Y358140D02*
D03*
Y543760D02*
D03*
Y733190D02*
D03*
Y443430D02*
D03*
Y628850D02*
D03*
D18*
X1477500Y1703805D02*
D03*
X1590000Y1405000D02*
D03*
X1477500Y1853805D02*
D03*
D19*
X1440000Y1665000D02*
D03*
X1465000D02*
D03*
X1565000Y1690000D02*
D03*
X1440000D02*
D03*
X1415000D02*
D03*
Y1665000D02*
D03*
X1390000D02*
D03*
X1465000Y1690000D02*
D03*
X1490000Y1665000D02*
D03*
Y1690000D02*
D03*
X1515000Y1665000D02*
D03*
Y1690000D02*
D03*
X1540000Y1665000D02*
D03*
Y1690000D02*
D03*
X1565000Y1665000D02*
D03*
X365000Y886220D02*
D03*
Y916220D02*
D03*
X330000Y150000D02*
D03*
Y120000D02*
D03*
Y90000D02*
D03*
X360000Y120000D02*
D03*
Y90000D02*
D03*
X1619220Y1294130D02*
D03*
X1589220D02*
D03*
X1619220Y1264130D02*
D03*
X1589220D02*
D03*
X1559220D02*
D03*
X1552500Y1366195D02*
D03*
X1577500D02*
D03*
X1677500Y1391195D02*
D03*
X1552500D02*
D03*
X1527500D02*
D03*
Y1366195D02*
D03*
X1502500D02*
D03*
X1577500Y1391195D02*
D03*
X1602500Y1366195D02*
D03*
Y1391195D02*
D03*
X1627500Y1366195D02*
D03*
Y1391195D02*
D03*
X1652500Y1366195D02*
D03*
Y1391195D02*
D03*
X1677500Y1366195D02*
D03*
X1075000Y925000D02*
D03*
Y895000D02*
D03*
Y865000D02*
D03*
X1105000Y895000D02*
D03*
Y865000D02*
D03*
X1340250Y40250D02*
D03*
X1370250D02*
D03*
X1465250D02*
D03*
X1495250D02*
D03*
X1590250D02*
D03*
X1620250D02*
D03*
X1600000Y945000D02*
D03*
Y975000D02*
D03*
X1570000Y945000D02*
D03*
Y975000D02*
D03*
Y1005000D02*
D03*
X1440000Y1815000D02*
D03*
X1465000D02*
D03*
X1565000Y1840000D02*
D03*
X1440000D02*
D03*
X1415000D02*
D03*
Y1815000D02*
D03*
X1390000D02*
D03*
X1465000Y1840000D02*
D03*
X1490000Y1815000D02*
D03*
Y1840000D02*
D03*
X1515000Y1815000D02*
D03*
Y1840000D02*
D03*
X1540000Y1815000D02*
D03*
Y1840000D02*
D03*
X1565000Y1815000D02*
D03*
X1665000D02*
D03*
Y1785000D02*
D03*
X1085000Y540000D02*
D03*
Y570000D02*
D03*
X1055000Y540000D02*
D03*
X665000Y886220D02*
D03*
Y916220D02*
D03*
X565000Y886220D02*
D03*
Y916220D02*
D03*
X940840Y101370D02*
D03*
Y131370D02*
D03*
X320000Y1840000D02*
D03*
X350000D02*
D03*
X380000D02*
D03*
X350000Y1870000D02*
D03*
X380000D02*
D03*
X465000Y886220D02*
D03*
Y916220D02*
D03*
X370000Y1650000D02*
D03*
X340000D02*
D03*
X310000D02*
D03*
X340000Y1620000D02*
D03*
X310000D02*
D03*
X620000Y150000D02*
D03*
Y120000D02*
D03*
Y90000D02*
D03*
X650000Y120000D02*
D03*
Y90000D02*
D03*
X480000Y150000D02*
D03*
Y120000D02*
D03*
Y90000D02*
D03*
X510000Y120000D02*
D03*
Y90000D02*
D03*
D20*
X1390000Y1690000D02*
D03*
X1502500Y1391195D02*
D03*
X1390000Y1840000D02*
D03*
D21*
X1105940Y151690D02*
D03*
X1732750Y53150D02*
D03*
X1024660Y151690D02*
D03*
D22*
X575000Y1640000D02*
D03*
X550000D02*
D03*
X525000D02*
D03*
X500000D02*
D03*
X475000D02*
D03*
X450000D02*
D03*
X575000Y1615000D02*
D03*
X550000D02*
D03*
X525000D02*
D03*
X500000D02*
D03*
X475000D02*
D03*
X450000D02*
D03*
X892000Y1830750D02*
D03*
X917000D02*
D03*
X942000D02*
D03*
X967000D02*
D03*
X992000D02*
D03*
X1017000D02*
D03*
X892000Y1855750D02*
D03*
X917000D02*
D03*
X942000D02*
D03*
X967000D02*
D03*
X992000D02*
D03*
X1017000D02*
D03*
X1016958Y1397344D02*
D03*
X991958D02*
D03*
X966958D02*
D03*
X941958D02*
D03*
X916958D02*
D03*
X891958D02*
D03*
X1016958Y1372344D02*
D03*
X991958D02*
D03*
X966958D02*
D03*
X941958D02*
D03*
X916958D02*
D03*
X891958D02*
D03*
X1017000Y1640750D02*
D03*
X992000D02*
D03*
X967000D02*
D03*
X942000D02*
D03*
X917000D02*
D03*
X892000D02*
D03*
X1017000Y1615750D02*
D03*
X992000D02*
D03*
X967000D02*
D03*
X942000D02*
D03*
X917000D02*
D03*
X892000D02*
D03*
X1017000Y1215750D02*
D03*
X992000D02*
D03*
X967000D02*
D03*
X942000D02*
D03*
X917000D02*
D03*
X892000D02*
D03*
X1017000Y1190750D02*
D03*
X992000D02*
D03*
X967000D02*
D03*
X942000D02*
D03*
X917000D02*
D03*
X892000D02*
D03*
X650000Y1371600D02*
D03*
X675000D02*
D03*
X700000D02*
D03*
X725000D02*
D03*
X750000D02*
D03*
X775000D02*
D03*
X650000Y1396600D02*
D03*
X675000D02*
D03*
X700000D02*
D03*
X725000D02*
D03*
X750000D02*
D03*
X775000D02*
D03*
X575000Y1855000D02*
D03*
X550000D02*
D03*
X525000D02*
D03*
X500000D02*
D03*
X475000D02*
D03*
X450000D02*
D03*
X575000Y1830000D02*
D03*
X550000D02*
D03*
X525000D02*
D03*
X500000D02*
D03*
X475000D02*
D03*
X450000D02*
D03*
X775000Y1855000D02*
D03*
X750000D02*
D03*
X725000D02*
D03*
X700000D02*
D03*
X675000D02*
D03*
X650000D02*
D03*
X775000Y1830000D02*
D03*
X750000D02*
D03*
X725000D02*
D03*
X700000D02*
D03*
X675000D02*
D03*
X650000D02*
D03*
X1275000Y1855000D02*
D03*
X1250000D02*
D03*
X1225000D02*
D03*
X1200000D02*
D03*
X1175000D02*
D03*
X1150000D02*
D03*
X1275000Y1830000D02*
D03*
X1250000D02*
D03*
X1225000D02*
D03*
X1200000D02*
D03*
X1175000D02*
D03*
X1150000D02*
D03*
X650000Y1615000D02*
D03*
X675000D02*
D03*
X700000D02*
D03*
X725000D02*
D03*
X750000D02*
D03*
X775000D02*
D03*
X650000Y1640000D02*
D03*
X675000D02*
D03*
X700000D02*
D03*
X725000D02*
D03*
X750000D02*
D03*
X775000D02*
D03*
X1150000Y1190000D02*
D03*
X1175000D02*
D03*
X1200000D02*
D03*
X1225000D02*
D03*
X1250000D02*
D03*
X1275000D02*
D03*
X1150000Y1215000D02*
D03*
X1175000D02*
D03*
X1200000D02*
D03*
X1225000D02*
D03*
X1250000D02*
D03*
X1275000D02*
D03*
X450000Y1371600D02*
D03*
X475000D02*
D03*
X500000D02*
D03*
X525000D02*
D03*
X550000D02*
D03*
X575000D02*
D03*
X450000Y1396600D02*
D03*
X475000D02*
D03*
X500000D02*
D03*
X525000D02*
D03*
X550000D02*
D03*
X575000D02*
D03*
X1150000Y1615000D02*
D03*
X1175000D02*
D03*
X1200000D02*
D03*
X1225000D02*
D03*
X1250000D02*
D03*
X1275000D02*
D03*
X1150000Y1640000D02*
D03*
X1175000D02*
D03*
X1200000D02*
D03*
X1225000D02*
D03*
X1250000D02*
D03*
X1275000D02*
D03*
X1150000Y1371600D02*
D03*
X1175000D02*
D03*
X1200000D02*
D03*
X1225000D02*
D03*
X1250000D02*
D03*
X1275000D02*
D03*
X1150000Y1396600D02*
D03*
X1175000D02*
D03*
X1200000D02*
D03*
X1225000D02*
D03*
X1250000D02*
D03*
X1275000D02*
D03*
X650000Y1190000D02*
D03*
X675000D02*
D03*
X700000D02*
D03*
X725000D02*
D03*
X750000D02*
D03*
X775000D02*
D03*
X650000Y1215000D02*
D03*
X675000D02*
D03*
X700000D02*
D03*
X725000D02*
D03*
X750000D02*
D03*
X775000D02*
D03*
D23*
X512500Y1653400D02*
D03*
X954500Y1869150D02*
D03*
X954458Y1410744D02*
D03*
X954500Y1654150D02*
D03*
Y1229150D02*
D03*
X712500Y1410000D02*
D03*
X512500Y1868400D02*
D03*
X712500D02*
D03*
X1212500D02*
D03*
X712500Y1653400D02*
D03*
X1212500Y1228400D02*
D03*
X512500Y1410000D02*
D03*
X1212500Y1653400D02*
D03*
X1212500Y1410000D02*
D03*
X712500Y1228400D02*
D03*
D24*
X321110Y60310D02*
D03*
Y179690D02*
D03*
X1529530Y1255240D02*
D03*
X1648910D02*
D03*
X1066110Y835310D02*
D03*
Y954690D02*
D03*
X1561110Y1034690D02*
D03*
Y915310D02*
D03*
X1115000Y530600D02*
D03*
X1025000D02*
D03*
X409690Y1831110D02*
D03*
X290310D02*
D03*
X929600Y925000D02*
D03*
X955000D02*
D03*
X929600Y850000D02*
D03*
X955000D02*
D03*
X280310Y1658890D02*
D03*
X399690D02*
D03*
X611110Y60310D02*
D03*
Y179690D02*
D03*
X471110Y60310D02*
D03*
Y179690D02*
D03*
D25*
X360000Y150000D02*
D03*
X1105000Y925000D02*
D03*
X1600000Y1005000D02*
D03*
X650000Y150000D02*
D03*
X510000D02*
D03*
D26*
X357500Y466600D02*
D03*
X407500D02*
D03*
X382500D02*
D03*
X1390000Y1255000D02*
D03*
X1364600D02*
D03*
X1415000Y1330000D02*
D03*
X1440000D02*
D03*
X1390000D02*
D03*
X1465000Y1255000D02*
D03*
X1439600D02*
D03*
X1463400Y962500D02*
D03*
Y1012500D02*
D03*
Y987500D02*
D03*
X1475000Y400400D02*
D03*
Y375000D02*
D03*
X128970Y1927300D02*
D03*
Y1952300D02*
D03*
X103970Y1952700D02*
D03*
X540000Y466600D02*
D03*
X565000D02*
D03*
X515000D02*
D03*
X149485Y1457300D02*
D03*
Y1482300D02*
D03*
X124485Y1482700D02*
D03*
X677700Y777250D02*
D03*
X677300Y752250D02*
D03*
X652300D02*
D03*
X577700Y777250D02*
D03*
X577300Y752250D02*
D03*
X552300D02*
D03*
X1475000Y712300D02*
D03*
Y737700D02*
D03*
Y587700D02*
D03*
Y562300D02*
D03*
X802700Y106030D02*
D03*
X802300Y81030D02*
D03*
X777300D02*
D03*
X477700Y777250D02*
D03*
X477300Y752250D02*
D03*
X452300D02*
D03*
X377700Y777250D02*
D03*
X377300Y752250D02*
D03*
X352300D02*
D03*
D27*
X332500Y466600D02*
D03*
X1365000Y1330000D02*
D03*
X490000Y466600D02*
D03*
D28*
X370000Y480000D02*
D03*
X1402500Y1343400D02*
D03*
X1450000Y975000D02*
D03*
X90000Y1940000D02*
D03*
X527500Y480000D02*
D03*
X110515Y1470000D02*
D03*
X665000Y791220D02*
D03*
X565000D02*
D03*
X790000Y120000D02*
D03*
X465000Y791220D02*
D03*
X365000D02*
D03*
D29*
X1559220Y1294130D02*
D03*
X1055000Y570000D02*
D03*
X320000Y1870000D02*
D03*
X370000Y1620000D02*
D03*
D30*
X1463400Y937500D02*
D03*
D31*
X103970Y1927300D02*
D03*
X124485Y1457300D02*
D03*
D32*
X652300Y777250D02*
D03*
X552300D02*
D03*
X777300Y106030D02*
D03*
X452300Y777250D02*
D03*
X352300D02*
D03*
D33*
X980400Y925000D02*
D03*
Y850000D02*
D03*
D34*
X179300Y1269270D02*
D03*
Y1296970D02*
D03*
Y1324670D02*
D03*
Y1241570D02*
D03*
Y1213870D02*
D03*
X150900Y1310820D02*
D03*
Y1283120D02*
D03*
Y1255420D02*
D03*
Y1227720D02*
D03*
X187150Y919120D02*
D03*
Y946820D02*
D03*
Y974520D02*
D03*
Y891420D02*
D03*
Y863720D02*
D03*
X158750Y960670D02*
D03*
Y932970D02*
D03*
Y905270D02*
D03*
Y877570D02*
D03*
X188400Y1728450D02*
D03*
Y1756150D02*
D03*
Y1783850D02*
D03*
Y1700750D02*
D03*
Y1673050D02*
D03*
X160000Y1770000D02*
D03*
Y1742300D02*
D03*
Y1714600D02*
D03*
Y1686900D02*
D03*
D35*
X165100Y1394270D02*
D03*
Y1144270D02*
D03*
X172950Y1044120D02*
D03*
Y794120D02*
D03*
X174200Y1853450D02*
D03*
Y1603450D02*
D03*
D36*
X238111Y1483588D02*
D03*
X242865Y1273569D02*
D03*
X503148Y589675D02*
D03*
X1694500Y1626750D02*
D03*
X1719500Y1353750D02*
D03*
X1660500Y1317750D02*
D03*
X1565500Y1728750D02*
D03*
X1559500Y1643250D02*
D03*
X1545000Y1641250D02*
D03*
X1588500Y1717500D02*
D03*
X1433878Y743623D02*
D03*
X1438474Y739027D02*
D03*
X1458831Y849912D02*
D03*
X1453500Y753750D02*
D03*
X1558171Y1201712D02*
D03*
X851958Y1290744D02*
D03*
X856016Y1300895D02*
D03*
X1606000Y1839750D02*
D03*
X1620318Y1822139D02*
D03*
X1301750Y1519994D02*
D03*
X1300583Y1529994D02*
D03*
X1108708Y1310512D02*
D03*
X1045500Y1530744D02*
D03*
Y1520744D02*
D03*
X382000Y909178D02*
D03*
X1596141Y1032876D02*
D03*
X1613571Y950717D02*
D03*
X1309000Y1509994D02*
D03*
X530000Y1595000D02*
D03*
X530750Y1586500D02*
D03*
X592250Y1364500D02*
D03*
X583138Y1557670D02*
D03*
X537650Y1627275D02*
D03*
X1519198Y1750250D02*
D03*
X1511750Y1746750D02*
D03*
X1396951Y1637327D02*
D03*
X1366500Y1637500D02*
D03*
X1383209Y1771291D02*
D03*
X1387250Y1756500D02*
D03*
X1362250Y1744500D02*
D03*
X1453145Y1590895D02*
D03*
X1460136Y1591929D02*
D03*
X1566000Y1752250D02*
D03*
X1555000Y1750000D02*
D03*
X1579655Y1851155D02*
D03*
X1503000Y1737250D02*
D03*
X1382888Y1788640D02*
D03*
X1476230Y1617904D02*
D03*
X1465488Y1582500D02*
D03*
X1504912Y1329887D02*
D03*
X1415746Y1708750D02*
D03*
X1487502Y1620892D02*
D03*
X1645000Y1330500D02*
D03*
X1654250Y1335000D02*
D03*
X1325597Y1297195D02*
D03*
X386796Y118596D02*
D03*
X684250Y900250D02*
D03*
X402331Y110617D02*
D03*
X983750Y144250D02*
D03*
X671515Y95989D02*
D03*
X1119958Y1807494D02*
D03*
X1107458Y1714994D02*
D03*
X1119208D02*
D03*
X1113958Y1299994D02*
D03*
X1107458D02*
D03*
X1154735Y1577328D02*
D03*
X1299958Y1719994D02*
D03*
X1306729Y1727331D02*
D03*
X1289958Y1719994D02*
D03*
X1163702Y1578322D02*
D03*
X1186686Y1560053D02*
D03*
X1259520Y1588545D02*
D03*
X1233796Y1587729D02*
D03*
X861958Y1808244D02*
D03*
X849458Y1715744D02*
D03*
X861208D02*
D03*
X849458Y1300744D02*
D03*
X896736Y1578078D02*
D03*
X1051958Y1510744D02*
D03*
X1041958Y1720744D02*
D03*
X1048729Y1728081D02*
D03*
X1031958Y1720744D02*
D03*
X905702Y1579072D02*
D03*
X928686Y1560803D02*
D03*
X1001521Y1589295D02*
D03*
X975796Y1588479D02*
D03*
X805000Y1510000D02*
D03*
X797000Y1530000D02*
D03*
X620000Y1807500D02*
D03*
X607500Y1715000D02*
D03*
X619250D02*
D03*
X600000Y1300000D02*
D03*
X614000D02*
D03*
X607500D02*
D03*
X654777Y1577334D02*
D03*
X800000Y1720000D02*
D03*
X806770Y1727337D02*
D03*
X790000Y1720000D02*
D03*
X663744Y1578328D02*
D03*
X686728Y1560059D02*
D03*
X800625Y1520000D02*
D03*
X759562Y1588551D02*
D03*
X733838Y1587735D02*
D03*
X480000Y1595000D02*
D03*
X450000D02*
D03*
X550000D02*
D03*
X580000D02*
D03*
Y1810000D02*
D03*
X550000D02*
D03*
X530000D02*
D03*
X450000D02*
D03*
X480000D02*
D03*
M02*
